# xmcd
#
# Track frame offsets:
#	150
#	18173
#	36780
#	56163
#	77670
#	99592
#	120838
#	135834
#	158988
#	181525
#
# Disc length: 2730 seconds
#
# Revision: 11
# Processed by: cddbd v1.5.2PL0 Copyright (c) Steve Scherf et al.
# Submitted via: Jack! The Knife 20 Magnifico
#
DISCID=690aa80a
DTITLE=Voivod - Katorz
DYEAR=2006
DGENRE=Metal
TTITLE0=The Getaway
TTITLE1=Dognation
TTITLE2=Mr. Clean
TTITLE3=After All
TTITLE4=Odds and Frauds
TTITLE5=Red My Mind
TTITLE6=Silly Clones
TTITLE7=No Angel
TTITLE8=The X-Stream
TTITLE9=Polaroids
EXTD=Glen Robinson and Voivod
EXTT0=Bélanger, Langevin, D'Amour, Newsted
EXTT1=Bélanger, Langevin, D'Amour, Newsted
EXTT2=Bélanger, Langevin, D'Amour, Newsted
EXTT3=Bélanger, Langevin, D'Amour, Newsted
EXTT4=Bélanger, Langevin, D'Amour, Newsted
EXTT5=Bélanger, Langevin, D'Amour, Newsted
EXTT6=Bélanger, Langevin, D'Amour, Newsted
EXTT7=Bélanger, Langevin, D'Amour, Newsted
EXTT8=Bélanger, Langevin, D'Amour, Newsted
EXTT9=Bélanger, Langevin, D'Amour, Newsted
PLAYORDER=
